<svg xmlns="http://www.w3.org/2000/svg" xml:space="preserve" id="Calque_1" x="0" y="0" style="enable-background:new 0 0 573 327" version="1.1" viewBox="0 0 573 327"><style>.st0{fill:#0a51a1}.st1{fill:#fff;stroke:#fff;stroke-width:.5;stroke-miterlimit:10}.st3{fill:#010203}</style><path d="M245.7 162.5C209.9 265.9 26 218.1 67.1 97.1 82.5 52.2 177.6 11.3 222 32.7c31 14.3 39.1 92 23.7 129.8" class="st0"/><path d="m92.2 103.9.7.1H120l.5-.1c1.6 0 2.5 1 2.8 3-.4 1.7-1.4 2.5-3 2.5H94.9V128h16.6l2-.1c1.2 0 2.1.9 2.5 2.8 0 1.2-.7 2.1-2.2 2.8l-2.8-.1H95V153l.1.8c-.4 1.7-1.3 2.6-2.6 2.6h-.3c-1.7-.3-2.6-1.2-2.6-2.6v-47.1c.3-1.7 1.1-2.6 2.6-2.6v-.2zM134.5 104.2h.5c1.7.3 2.5 1.1 2.5 2.2v29.4c0 6.3 1.8 10.5 5.4 12.7 2.3 1.7 4.8 2.6 7.6 2.6 5.4 0 9.4-2.8 12.1-8.3.6-1.7.8-3.5.8-5.4v-30.6c.3-1.7 1.1-2.6 2.5-2.6h.4c1.7.3 2.5 1.1 2.5 2.5v32.1c0 5.5-2.6 10.2-7.9 14.3-3.3 2.2-6.7 3.3-10.1 3.3h-.9c-5.7 0-10.7-2.8-14.9-8.4-1.9-3-2.9-6.7-2.9-11.1v-29.6c.3-2.1 1-3.1 2.4-3.1zM182.5 104.3h.5c1.2 0 2.2.9 3 2.7 1.4 1.5 11.3 14.3 29.9 38.3.2 0 .3.1.3.4l.1.1h.1v-39.1c.3-1.7 1.1-2.5 2.5-2.5h.4c1.4 0 2.2.9 2.5 2.6v46.8c0 1.5-1 2.4-2.9 2.7-1 0-2.6-1.6-4.8-4.8L185.5 115v38.8c0 1.4-.9 2.2-2.6 2.5h-.1c-1.4 0-2.3-.9-2.6-2.7v-46.2c.2-2.1 1-3.1 2.3-3.1z" class="st1"/><path d="M260.3 214.7c-12.3 15.7-34.6-2.4-20.5-15.7 14.2-13.2 33.7.9 20.5 15.7" style="fill:#ff0001"/><path d="M288.2 102.5h16.1v3.1h-12.6v9.6h10.7v3.1h-10.7V131h-3.6v-28.5zM309.4 102.5h8.8c5.7 0 9.8 2.1 9.8 8 0 4.4-2.5 7-6.3 8l7.1 12.4h-4.1l-6.7-12h-5v12h-3.6v-28.4zm8.2 13.4c4.4 0 6.7-1.8 6.7-5.4 0-3.7-2.4-5.1-6.7-5.1h-4.7v10.5h4.7zM339.2 102.5h4.1l9.4 28.4H349l-2.6-8.6h-10.2l-2.7 8.6h-3.6l9.3-28.4zm-2.1 16.8h8.4l-1.3-4.3c-1-3.2-1.9-6.3-2.8-9.6h-.2c-.9 3.3-1.8 6.4-2.7 9.6l-1.4 4.3zM356.7 102.5h3.8l10 17.7c1.1 1.9 2 4 3 6.1h.2c-.2-2.9-.5-6.1-.5-9v-14.8h3.4v28.4h-3.8l-10-17.7c-1.1-1.9-2.1-4-3-6.1h-.2c.2 2.9.5 5.9.5 8.9v14.9h-3.4v-28.4zM382.7 116.7c0-9.1 5.3-14.7 12.4-14.7 3.4 0 6.1 1.6 7.7 3.5l-2 2.2c-1.5-1.6-3.3-2.6-5.7-2.6-5.3 0-8.8 4.4-8.8 11.4 0 7.1 3.3 11.6 8.6 11.6 2.7 0 4.7-1.1 6.5-3.1l2 2.2c-2.3 2.6-5 4.1-8.6 4.1-6.9.1-12.1-5.4-12.1-14.6zM408.7 102.5h16.1v3.1h-12.6v8.9h10.6v3.1h-10.6v10.3h13v3.1h-16.6v-28.5zM288.5 163.5v-17.6h1.8v17.4c0 7.7 3.5 9.9 7.6 9.9s7.7-2.3 7.7-9.9v-17.4h1.8v17.6c0 8.9-4.7 11.4-9.5 11.4s-9.4-2.6-9.4-11.4zM315.6 145.8h2l12 20.2c1.1 1.9 2.2 3.8 3.2 5.8h.2c-.1-2.8-.2-5.5-.2-8.3v-17.7h1.7v28.5h-1.9l-12-20.2c-1.1-1.9-2.2-3.9-3.2-5.8h-.2c.1 2.7.2 5.3.2 8v18h-1.7v-28.5zM342.7 145.8h1.8v28.5h-1.8v-28.5zM348.9 145.8h1.9l5.1 16.7c1.1 3.5 1.8 6.1 3 9.6h.2c1.2-3.5 1.9-6.1 3-9.6l5.4-16.7h1.8l-9.4 28.5H358l-9.1-28.5zM373.8 145.8h15.3v1.6h-13.5v10.9h11.3v1.6h-11.3v12.8h13.9v1.6h-15.8v-28.5zM395.7 145.8h8c5.6 0 9.2 2.1 9.2 7.5 0 4.5-2.8 7.2-7.3 7.7l7.9 13.3h-2.1l-7.7-13.2h-6v13.2h-1.8v-28.5zm7.5 13.8c5 0 7.8-2 7.8-6.3s-2.8-5.9-7.8-5.9h-5.6v12.2h5.6zM416 170.5l1.2-1.3c2 2.4 5 3.9 8.3 3.9 4.4 0 7.1-2.4 7.1-5.8 0-3.6-2.3-4.8-5.1-6l-4.3-1.9c-2.4-1.1-5.7-2.9-5.7-7.1 0-4.1 3.5-7 8.1-7 3.4 0 6.1 1.6 7.8 3.4l-1.1 1.3c-1.7-1.8-3.9-2.9-6.7-2.9-3.8 0-6.3 2-6.3 5.2 0 3.4 2.8 4.6 4.9 5.5l4.3 1.9c3.1 1.4 5.9 3.2 5.9 7.5s-3.5 7.7-9 7.7c-4-.1-7.2-1.8-9.4-4.4zM440.4 145.8h1.8v28.5h-1.8v-28.5zM456.7 147.4h-9v-1.6h19.8v1.6h-9v26.9h-1.8v-26.9zM472.9 145.8h15.3v1.6h-13.5v10.9H486v1.6h-11.3v12.8h13.9v1.6h-15.8v-28.5zm5.2-2.9 6.7-5.3 1 1.3-6.9 4.9-.8-.9zM288.6 190.7h2l12 20.2c1.1 1.9 2.2 3.8 3.2 5.8h.2c-.1-2.8-.2-5.5-.2-8.3v-17.7h1.7v28.5h-1.9l-12-20.2c-1.1-1.9-2.2-3.9-3.2-5.8h-.2c.1 2.7.2 5.3.2 8v18h-1.7v-28.5zM315.6 208.3v-17.6h1.8v17.4c0 7.7 3.5 9.9 7.6 9.9s7.7-2.3 7.7-9.9v-17.4h1.8v17.6c0 8.9-4.7 11.4-9.5 11.4s-9.4-2.5-9.4-11.4zM342.7 190.7h2.7l5.9 16.9c.7 2.1 1.5 4.2 2.2 6.4h.2c.7-2.2 1.4-4.2 2.1-6.4l5.9-16.9h2.7v28.5h-1.8v-19c0-2.3.2-5.3.3-7.7h-.2l-2.2 6.4-6.1 17.2h-1.7l-6.1-17.2-2.2-6.4h-.2c.1 2.4.3 5.4.3 7.7v19h-1.7v-28.5zM372.8 190.7h15.3v1.6h-13.5v10.9h11.3v1.6h-11.3v12.8h13.9v1.6h-15.8v-28.5zm5.1-3 6.7-5.3 1 1.3-6.9 4.9-.8-.9zM394.7 190.7h8c5.6 0 9.2 2.1 9.2 7.5 0 4.5-2.8 7.2-7.3 7.7l7.9 13.3h-2.1l-7.7-13.2h-6v13.2h-1.8v-28.5zm7.5 13.7c5 0 7.8-2 7.8-6.3s-2.8-5.9-7.8-5.9h-5.6v12.2h5.6zM417.8 190.7h1.8v28.5h-1.8v-28.5zM436.7 219.6c-6.2-.6-10.5-6.3-10.5-14.8 0-9 4.8-14.7 11.6-14.7s11.5 5.7 11.5 14.7c0 8.6-4.3 14.3-10.5 14.8 1.3 2.9 3.8 4.5 7.3 4.5 1.3 0 2.2-.2 2.9-.3l.4 1.5c-.7.3-2 .6-3.4.6-4.8 0-8-2.7-9.3-6.3zm10.6-14.8c0-8-3.8-13-9.6-13s-9.6 5-9.6 13 3.9 13.3 9.6 13.3 9.6-5.3 9.6-13.3zM455.7 208.3v-17.6h1.8v17.4c0 7.7 3.5 9.9 7.6 9.9s7.7-2.3 7.7-9.9v-17.4h1.8v17.6c0 8.9-4.7 11.4-9.5 11.4s-9.4-2.5-9.4-11.4zM482.8 190.7h15.3v1.6h-13.5v10.9H496v1.6h-11.3v12.8h13.9v1.6h-15.8v-28.5z" class="st3"/><path d="m92.2 103.9.7.1H120l.5-.1c1.6 0 2.5 1 2.8 3-.4 1.7-1.4 2.5-3 2.5H94.9V128h16.6l2-.1c1.2 0 2.1.9 2.5 2.8 0 1.2-.7 2.1-2.2 2.8l-2.8-.1H95V153l.1.8c-.4 1.7-1.3 2.6-2.6 2.6h-.3c-1.7-.3-2.6-1.2-2.6-2.6v-47.1c.3-1.7 1.1-2.6 2.6-2.6v-.2zM134.5 104.2h.5c1.7.3 2.5 1.1 2.5 2.2v29.4c0 6.3 1.8 10.5 5.4 12.7 2.3 1.7 4.8 2.6 7.6 2.6 5.4 0 9.4-2.8 12.1-8.3.6-1.7.8-3.5.8-5.4v-30.6c.3-1.7 1.1-2.6 2.5-2.6h.4c1.7.3 2.5 1.1 2.5 2.5v32.1c0 5.5-2.6 10.2-7.9 14.3-3.3 2.2-6.7 3.3-10.1 3.3h-.9c-5.7 0-10.7-2.8-14.9-8.4-1.9-3-2.9-6.7-2.9-11.1v-29.6c.3-2.1 1-3.1 2.4-3.1zM182.5 104.3h.5c1.2 0 2.2.9 3 2.7 1.4 1.5 11.3 14.3 29.9 38.3.2 0 .3.1.3.4l.1.1h.1v-39.1c.3-1.7 1.1-2.5 2.5-2.5h.4c1.4 0 2.2.9 2.5 2.6v46.8c0 1.5-1 2.4-2.9 2.7-1 0-2.6-1.6-4.8-4.8L185.5 115v38.8c0 1.4-.9 2.2-2.6 2.5h-.1c-1.4 0-2.3-.9-2.6-2.7v-46.2c.2-2.1 1-3.1 2.3-3.1z" class="st1"/><path d="M87.5 253.3h-9.2v25.5h-7v-25.5H62v-6.5h25.5v6.5zM111.7 278.7h-6.8v-13c0-1.5-.3-2.6-.9-3.3-.6-.7-1.4-1.1-2.3-1.1-.5 0-1.1.2-1.7.5-.6.3-1.2.8-1.8 1.4-.5.6-1 1.3-1.2 2.1v13.3h-6.8v-32.8H97v13.5c.8-1.4 1.9-2.5 3.3-3.2 1.4-.8 2.8-1.1 4.5-1.1 1.5 0 2.8.3 3.7.8.9.5 1.6 1.2 2.1 2.1.5.9.8 1.8 1 2.9s.3 2.1.3 3.1v14.8zM126.6 279.2c-1.9 0-3.6-.3-5.1-1-1.5-.6-2.7-1.5-3.8-2.6-1-1.1-1.8-2.4-2.4-3.8s-.8-2.9-.8-4.5c0-2.2.5-4.3 1.4-6.1 1-1.8 2.3-3.3 4.1-4.5 1.8-1.1 4-1.7 6.5-1.7s4.7.6 6.5 1.7c1.8 1.1 3.1 2.6 4.1 4.4.9 1.8 1.4 3.8 1.4 5.9 0 .4 0 .8-.1 1.2 0 .4-.1.7-.1 1h-16.6c.1 1 .4 1.9.8 2.6.5.7 1.1 1.2 1.8 1.6.7.4 1.5.5 2.4.5 1 0 2-.3 2.9-.8.9-.5 1.5-1.2 1.9-2.1l5.8 1.7c-.6 1.2-1.4 2.3-2.4 3.3-1 .9-2.3 1.7-3.7 2.2s-2.9 1-4.6 1zm-5-14.3h9.7c-.1-.9-.4-1.8-.8-2.5s-1-1.2-1.7-1.6c-.7-.4-1.5-.6-2.4-.6-.9 0-1.7.2-2.4.6s-1.3.9-1.7 1.6c-.3.7-.5 1.5-.7 2.5zM152.4 278.7v-16.2h-2.9V257h2.9v-1.9c0-2 .3-3.7 1-5.1.6-1.4 1.6-2.6 2.7-3.4 1.2-.8 2.6-1.2 4.1-1.2 1 0 1.9.1 2.9.4 1 .2 2 .6 2.9 1l-1.2 5.4c-.4-.2-.9-.4-1.5-.5-.6-.1-1.1-.2-1.6-.2-.8 0-1.5.3-1.9.8-.4.6-.6 1.4-.6 2.5v2.2h5.2v5.4h-5.2v16.2h-6.8zM181.3 261.3c-1.7 0-3.1.3-4.5.8-1.3.6-2.3 1.4-2.9 2.5v14.2h-6.8v-23.4h6.3v4.5c.8-1.6 1.8-2.8 3-3.7 1.2-.9 2.5-1.4 3.8-1.4h1.1v6.5zM194.4 279.2c-1.9 0-3.6-.3-5.1-1-1.5-.6-2.7-1.5-3.8-2.6-1-1.1-1.8-2.4-2.4-3.8s-.8-2.9-.8-4.5c0-2.2.5-4.3 1.4-6.1 1-1.8 2.3-3.3 4.1-4.5 1.8-1.1 4-1.7 6.5-1.7s4.7.6 6.5 1.7c1.8 1.1 3.1 2.6 4.1 4.4.9 1.8 1.4 3.8 1.4 5.9 0 .4 0 .8-.1 1.2 0 .4-.1.7-.1 1h-16.6c.1 1 .4 1.9.8 2.6.5.7 1.1 1.2 1.8 1.6.7.4 1.5.5 2.4.5 1 0 2-.3 2.9-.8.9-.5 1.5-1.2 1.9-2.1l5.8 1.7c-.6 1.2-1.4 2.3-2.4 3.3-1 .9-2.3 1.7-3.7 2.2s-2.9 1-4.6 1zm-5-14.3h9.7c-.1-.9-.4-1.8-.8-2.5s-1-1.2-1.7-1.6c-.7-.4-1.5-.6-2.4-.6-.9 0-1.7.2-2.4.6s-1.3.9-1.7 1.6c-.3.7-.5 1.5-.7 2.5zM219.9 279.2c-1.9 0-3.6-.3-5.1-1-1.5-.6-2.7-1.5-3.8-2.6-1-1.1-1.8-2.4-2.4-3.8s-.8-2.9-.8-4.5c0-2.2.5-4.3 1.4-6.1 1-1.8 2.3-3.3 4.1-4.5 1.8-1.1 4-1.7 6.5-1.7s4.7.6 6.5 1.7c1.8 1.1 3.1 2.6 4.1 4.4.9 1.8 1.4 3.8 1.4 5.9 0 .4 0 .8-.1 1.2 0 .4-.1.7-.1 1H215c.1 1 .4 1.9.8 2.6.5.7 1.1 1.2 1.8 1.6.7.4 1.5.5 2.4.5 1 0 2-.3 2.9-.8.9-.5 1.5-1.2 1.9-2.1l5.8 1.7c-.6 1.2-1.4 2.3-2.4 3.3-1 .9-2.3 1.7-3.7 2.2s-2.9 1-4.6 1zm-5-14.3h9.7c-.1-.9-.4-1.8-.8-2.5s-1-1.2-1.7-1.6c-.7-.4-1.5-.6-2.4-.6-.9 0-1.7.2-2.4.6s-1.3.9-1.7 1.6c-.3.7-.6 1.5-.7 2.5zM233.4 267.1c0-2.3.4-4.3 1.3-6.1.9-1.8 2-3.3 3.5-4.3 1.5-1.1 3.2-1.6 5.1-1.6 1.6 0 3 .4 4.3 1.2s2.3 1.8 2.9 3.1v-13.5h6.8v24.8c0 .7.1 1.2.3 1.5.2.3.6.5 1.1.5v6c-1.2.2-2.2.4-2.9.4-1.2 0-2.1-.3-2.8-.8-.7-.5-1.2-1.3-1.3-2.2l-.1-1.2c-.8 1.5-1.9 2.6-3.2 3.3s-2.8 1.1-4.3 1.1-3-.3-4.3-.9c-1.3-.6-2.4-1.5-3.4-2.5-1-1.1-1.7-2.4-2.2-3.9-.6-1.6-.8-3.2-.8-4.9zm17.1 2.8v-4.8c-.3-.8-.7-1.5-1.2-2.1s-1.1-1-1.8-1.4-1.3-.5-2-.5-1.4.2-2 .5c-.6.3-1.1.8-1.6 1.3-.5.6-.8 1.2-1 1.9-.2.7-.4 1.5-.4 2.3 0 .8.1 1.6.4 2.3.3.7.6 1.3 1.1 1.9.5.5 1.1 1 1.7 1.2s1.4.4 2.1.4c.5 0 1-.1 1.4-.2.5-.2.9-.4 1.3-.6.4-.3.8-.6 1.1-1 .4-.3.7-.7.9-1.2zM272.9 279.2c-1.9 0-3.6-.3-5.1-1-1.5-.7-2.8-1.5-3.8-2.7-1-1.1-1.8-2.4-2.3-3.9s-.8-3-.8-4.6c0-1.6.3-3.2.8-4.6s1.3-2.7 2.3-3.9c1-1.1 2.3-2 3.8-2.7 1.5-.7 3.2-1 5.1-1 1.9 0 3.6.3 5.1 1 1.5.7 2.7 1.5 3.8 2.7 1 1.1 1.8 2.4 2.4 3.9.5 1.4.8 3 .8 4.6 0 1.6-.3 3.1-.8 4.6-.5 1.4-1.3 2.7-2.4 3.9-1 1.1-2.3 2-3.8 2.7-1.5.7-3.2 1-5.1 1zm-5-12.1c0 1.2.2 2.2.7 3.1.4.9 1 1.6 1.8 2.1s1.6.7 2.6.7c.9 0 1.8-.3 2.5-.8s1.3-1.2 1.8-2.1c.4-.9.6-1.9.6-3.1 0-1.2-.2-2.2-.6-3.1-.4-.9-1-1.6-1.8-2.1s-1.6-.7-2.5-.7c-1 0-1.8.2-2.6.7s-1.3 1.2-1.8 2.1c-.4 1-.7 2-.7 3.2zM323.5 278.7h-6.8v-13c0-1.5-.3-2.6-.8-3.3-.5-.7-1.2-1.1-2.1-1.1-.9 0-1.8.4-2.7 1.1-.9.8-1.5 1.7-1.9 3v13.3h-6.8v-13c0-1.5-.3-2.6-.8-3.3-.5-.7-1.2-1-2.1-1-.9 0-1.8.4-2.7 1.1-.9.8-1.5 1.7-1.9 2.9v13.3H288v-23.4h6.2v4c.8-1.4 1.9-2.5 3.4-3.2 1.4-.8 3.1-1.1 4.9-1.1 1.9 0 3.3.5 4.3 1.4 1 .9 1.6 2 1.9 3.2.9-1.4 2-2.6 3.4-3.3 1.4-.8 3-1.2 4.8-1.2 1.4 0 2.6.3 3.5.8.9.5 1.6 1.3 2 2.1.5.9.8 1.8.9 2.9s.3 2 .3 3v14.8zM351.8 277.5c-.6.3-1.3.5-2.1.8-.8.3-1.5.5-2.4.7-.8.2-1.6.2-2.4.2-1.1 0-2.2-.2-3.1-.6-1-.4-1.7-1.1-2.3-2-.6-.9-.8-2.1-.8-3.6v-12.2h-2.9v-5.4h2.9v-7.5h6.8v7.5h4.6v5.4h-4.6v9.6c0 .8.2 1.3.6 1.6.4.3.8.5 1.4.5.5 0 1-.1 1.6-.3.6-.2 1-.4 1.4-.6l1.3 5.9zM364.5 279.2c-1.9 0-3.6-.3-5.1-1-1.5-.7-2.8-1.5-3.8-2.7-1-1.1-1.8-2.4-2.3-3.9s-.8-3-.8-4.6c0-1.6.3-3.2.8-4.6s1.3-2.7 2.3-3.9c1-1.1 2.3-2 3.8-2.7 1.5-.7 3.2-1 5.1-1 1.9 0 3.6.3 5.1 1 1.5.7 2.7 1.5 3.8 2.7 1 1.1 1.8 2.4 2.4 3.9.5 1.4.8 3 .8 4.6 0 1.6-.3 3.1-.8 4.6-.5 1.4-1.3 2.7-2.4 3.9-1 1.1-2.3 2-3.8 2.7-1.5.7-3.2 1-5.1 1zm-5-12.1c0 1.2.2 2.2.7 3.1.4.9 1 1.6 1.8 2.1s1.6.7 2.6.7c.9 0 1.8-.3 2.5-.8s1.3-1.2 1.8-2.1c.4-.9.6-1.9.6-3.1 0-1.2-.2-2.2-.6-3.1-.4-.9-1-1.6-1.8-2.1s-1.6-.7-2.5-.7c-1 0-1.8.2-2.6.7s-1.3 1.2-1.8 2.1c-.5 1-.7 2-.7 3.2zM397.8 279.2c-1.9 0-3.8-.3-5.6-1-1.8-.7-3.4-1.6-4.6-2.9l2.4-4.5c1.4 1 2.7 1.8 4 2.4s2.5.8 3.7.8c.9 0 1.6-.1 2.1-.4.5-.3.7-.7.7-1.3 0-.4-.1-.8-.4-1s-.7-.5-1.3-.7c-.6-.2-1.3-.4-2.2-.7-1.7-.6-3.1-1.2-4.3-1.7-1.1-.6-2-1.2-2.6-2.1-.6-.8-.9-1.9-.9-3.2 0-1.6.4-2.9 1.1-4.1.8-1.2 1.8-2.1 3.2-2.7s3.1-1 5-1c1.5 0 3 .3 4.5.8s2.8 1.4 4.1 2.6L404 263c-1.3-.9-2.4-1.6-3.4-2-1-.4-2-.6-2.9-.6-.5 0-.9.1-1.3.2s-.7.3-1 .6c-.2.3-.4.6-.4 1.1 0 .4.1.8.4 1.1.2.3.6.5 1.2.7.5.2 1.2.4 2 .7 1.9.6 3.4 1.1 4.6 1.7 1.2.6 2.1 1.3 2.8 2.1.6.8.9 2 .9 3.3 0 2.4-.8 4.2-2.5 5.5-1.6 1.1-3.8 1.8-6.6 1.8zM424.4 277.5c-.6.3-1.3.5-2.1.8-.8.3-1.5.5-2.4.7-.8.2-1.6.2-2.4.2-1.1 0-2.2-.2-3.1-.6-1-.4-1.7-1.1-2.3-2-.6-.9-.8-2.1-.8-3.6v-12.2h-2.9v-5.4h2.9v-7.5h6.8v7.5h4.6v5.4h-4.6v9.6c0 .8.2 1.3.6 1.6.4.3.8.5 1.4.5.5 0 1-.1 1.6-.3.6-.2 1-.4 1.4-.6l1.3 5.9zM426.5 270.3v-15h6.8v13.3c0 1.4.3 2.5.8 3.3.5.8 1.3 1.1 2.3 1.1.6 0 1.2-.1 1.8-.3s1.1-.6 1.7-1.1c.5-.5 1-1.1 1.5-1.9v-14.4h6.8v15.4c0 .7.1 1.2.3 1.5s.6.5 1.1.5v6c-.6.1-1.2.2-1.6.3-.5.1-.9.1-1.3.1-1.2 0-2.2-.3-2.9-.8-.7-.5-1.2-1.3-1.3-2.2l-.1-1.4c-1 1.5-2.3 2.7-3.8 3.4-1.5.7-3.2 1.1-5.1 1.1-2.3 0-4-.8-5.2-2.3-1.2-1.5-1.8-3.7-1.8-6.6zM451.9 267.1c0-2.3.4-4.3 1.3-6.1.9-1.8 2-3.3 3.5-4.3 1.5-1.1 3.2-1.6 5.1-1.6 1.6 0 3 .4 4.3 1.2s2.3 1.8 2.9 3.1v-13.5h6.8v24.8c0 .7.1 1.2.3 1.5.2.3.6.5 1.1.5v6c-1.2.2-2.2.4-2.9.4-1.2 0-2.1-.3-2.8-.8-.7-.5-1.2-1.3-1.3-2.2l-.1-1.2c-.8 1.5-1.9 2.6-3.2 3.3s-2.8 1.1-4.3 1.1-3-.3-4.3-.9c-1.3-.6-2.4-1.5-3.4-2.5-1-1.1-1.7-2.4-2.2-3.9-.5-1.6-.8-3.2-.8-4.9zm17.2 2.8v-4.8c-.3-.8-.7-1.5-1.2-2.1s-1.1-1-1.8-1.4-1.3-.5-2-.5-1.4.2-2 .5c-.6.3-1.1.8-1.6 1.3-.5.6-.8 1.2-1 1.9-.2.7-.4 1.5-.4 2.3 0 .8.1 1.6.4 2.3.3.7.6 1.3 1.1 1.9.5.5 1.1 1 1.7 1.2s1.4.4 2.1.4c.5 0 1-.1 1.4-.2.5-.2.9-.4 1.3-.6.4-.3.8-.6 1.1-1 .4-.3.6-.7.9-1.2zM480.8 282.3c.6.2 1.1.3 1.6.4.5.1.9.2 1.3.2.5 0 1-.1 1.4-.4.4-.3.7-.7 1-1.3.3-.6.5-1.4.8-2.4l-8.5-23.4h7.1l5.2 16.1 4.4-16.1h6.5l-8.5 27.2c-.4 1.3-1 2.4-1.8 3.4s-1.8 1.7-3 2.3-2.5.8-3.8.8c-.6 0-1.2-.1-1.8-.2-.6-.1-1.2-.3-1.8-.5v-6.1z" class="st0"/></svg>
