<svg xmlns="http://www.w3.org/2000/svg" xml:space="preserve" id="Calque_1" x="0" y="0" style="enable-background:new 0 0 573 327" version="1.1" viewBox="0 0 573 327"><style>.st0{fill:#0a51a1}.st1{fill:#fff;stroke:#fff;stroke-width:.5;stroke-miterlimit:10}.st3{fill:#010203}</style><path d="M245.7 162.5C209.9 265.9 26 218.1 67.1 97.1 82.5 52.2 177.6 11.3 222 32.7c31 14.3 39.1 92 23.7 129.8" class="st0"/><path d="m92.2 103.9.7.1H120l.5-.1c1.6 0 2.5 1 2.8 3-.4 1.7-1.4 2.5-3 2.5H94.9V128h16.6l2-.1c1.2 0 2.1.9 2.5 2.8 0 1.2-.7 2.1-2.2 2.8l-2.8-.1H95V153l.1.8c-.4 1.7-1.3 2.6-2.6 2.6h-.3c-1.7-.3-2.6-1.2-2.6-2.6v-47.1c.3-1.7 1.1-2.6 2.6-2.6v-.2zM134.5 104.2h.5c1.7.3 2.5 1.1 2.5 2.2v29.4c0 6.3 1.8 10.5 5.4 12.7 2.3 1.7 4.8 2.6 7.6 2.6 5.4 0 9.4-2.8 12.1-8.3.6-1.7.8-3.5.8-5.4v-30.6c.3-1.7 1.1-2.6 2.5-2.6h.4c1.7.3 2.5 1.1 2.5 2.5v32.1c0 5.5-2.6 10.2-7.9 14.3-3.3 2.2-6.7 3.3-10.1 3.3h-.9c-5.7 0-10.7-2.8-14.9-8.4-1.9-3-2.9-6.7-2.9-11.1v-29.6c.3-2.1 1-3.1 2.4-3.1zM182.5 104.3h.5c1.2 0 2.2.9 3 2.7 1.4 1.5 11.3 14.3 29.9 38.3.2 0 .3.1.3.4l.1.1h.1v-39.1c.3-1.7 1.1-2.5 2.5-2.5h.4c1.4 0 2.2.9 2.5 2.6v46.8c0 1.5-1 2.4-2.9 2.7-1 0-2.6-1.6-4.8-4.8L185.5 115v38.8c0 1.4-.9 2.2-2.6 2.5h-.1c-1.4 0-2.3-.9-2.6-2.7v-46.2c.2-2.1 1-3.1 2.3-3.1z" class="st1"/><path d="M260.3 214.7c-12.3 15.7-34.6-2.4-20.5-15.7 14.2-13.2 33.7.9 20.5 15.7" style="fill:#fd1215"/><path d="M288.2 102.5h16.1v3h-12.6v9.6h10.7v3h-10.7v12.7h-3.5v-28.3zM324.7 130.9l-6.7-12h-5.1v12h-3.5v-28.4h8.8c1.4 0 2.7.1 3.9.4 1.2.3 2.2.7 3.1 1.4.9.6 1.5 1.5 2 2.5s.7 2.2.7 3.7c0 2.2-.6 4-1.7 5.3-1.1 1.3-2.7 2.2-4.6 2.7l7.1 12.4h-4zm-11.8-15h4.7c2.2 0 3.9-.5 5-1.4 1.2-.9 1.8-2.3 1.8-4.1 0-1.9-.6-3.2-1.8-3.9-1.2-.7-2.8-1.1-5-1.1h-4.7v10.5zM346.5 122.2h-10.2l-2.7 8.6H330l9.5-28.4h4l9.5 28.4h-3.8l-2.7-8.6zm-.9-2.9-1.3-4.3c-.5-1.6-1-3.2-1.5-4.7-.5-1.6-.9-3.2-1.4-4.8h-.2c-.4 1.6-.9 3.2-1.3 4.8-.5 1.6-.9 3.1-1.5 4.7l-1.3 4.3h8.5zM356.9 102.5h3.7l10.1 17.8 3 5.9h.2c-.1-1.4-.2-2.9-.3-4.5-.1-1.5-.2-3.1-.2-4.6v-14.7h3.4v28.4h-3.7L363 113l-3-5.8h-.2c.1 1.4.2 2.9.3 4.4s.1 3 .1 4.5v14.8h-3.4v-28.4zM382.9 116.7c0-2.3.3-4.3.9-6.1.6-1.8 1.5-3.4 2.6-4.6 1.1-1.3 2.4-2.2 3.9-2.9 1.5-.7 3.2-1 5-1 1.7 0 3.2.4 4.5 1.1 1.3.7 2.3 1.5 3.2 2.4l-2 2.3c-.7-.8-1.6-1.4-2.5-1.9s-1.9-.7-3.1-.7c-1.3 0-2.5.3-3.6.8s-2 1.3-2.8 2.3c-.8 1-1.4 2.2-1.8 3.6-.4 1.4-.6 3-.6 4.8 0 1.8.2 3.4.6 4.8s1 2.6 1.7 3.7c.7 1 1.6 1.8 2.7 2.3 1.1.5 2.3.8 3.6.8 1.4 0 2.6-.3 3.6-.8s2-1.3 2.9-2.3l2 2.2c-1.1 1.3-2.4 2.3-3.8 3-1.4.7-3 1.1-4.8 1.1-1.8 0-3.4-.3-4.9-1s-2.8-1.6-3.9-2.9-1.9-2.8-2.6-4.6-.8-4.1-.8-6.4zM408.9 102.5H425v3h-12.6v8.9H423v3.1h-10.6v10.3h13v3.1h-16.6v-28.4zM288.4 145.8h2v17.3c0 1.9.2 3.5.6 4.7.4 1.3 1 2.3 1.6 3 .7.8 1.5 1.3 2.4 1.6s1.8.5 2.8.5c1 0 2-.2 2.9-.5.9-.3 1.7-.9 2.4-1.6.7-.8 1.3-1.8 1.7-3 .4-1.3.6-2.8.6-4.7v-17.3h1.8v17.6c0 2.2-.3 4.1-.8 5.5s-1.3 2.6-2.1 3.5c-.9.9-1.9 1.5-3 1.9-1.1.4-2.3.5-3.5.5-1.2 0-2.4-.2-3.5-.5s-2.1-1-3-1.9c-.9-.9-1.6-2.1-2.1-3.5-.5-1.5-.8-3.3-.8-5.5v-17.6zM315.6 145.8h2l11.9 20.1 3.2 5.7h.2c-.1-1.4-.1-2.8-.2-4.2-.1-1.4-.1-2.8-.1-4.2v-17.5h1.9v28.5h-2l-11.9-20.1-3.2-5.7h-.2c.1 1.4.1 2.7.2 4 .1 1.3.1 2.7.1 4v17.7h-1.9v-28.3zM342.7 145.8h2v28.5h-2v-28.5zM349 145.8h2.1l5.2 16.6c.5 1.7 1 3.3 1.5 4.8.4 1.5.9 3 1.5 4.8h.2c.3-.9.5-1.7.8-2.5s.5-1.5.7-2.3c.2-.8.5-1.5.7-2.3.2-.8.5-1.6.7-2.5l5.2-16.6h2l-9.2 28.5h-2.1l-9.3-28.5zM373.9 145.8h15.4v1.7h-13.4v10.8h11.3v1.7h-11.3v12.5h13.9v1.7H374v-28.4zM411.5 174.3l-7.6-13.1h-6v13.1h-2v-28.5h8.1c1.4 0 2.7.1 3.8.4 1.1.3 2.1.7 2.9 1.3.8.6 1.4 1.4 1.9 2.3s.7 2.1.7 3.5c0 2.3-.6 4.1-1.9 5.4s-3.1 2.1-5.3 2.4l7.8 13.2h-2.4zm-8-14.7c2.5 0 4.4-.5 5.7-1.5s2-2.6 2-4.7-.7-3.6-2-4.5c-1.3-.9-3.2-1.3-5.7-1.3h-5.6v12.1h5.6zM418.3 169.2c1 1.2 2.2 2.1 3.7 2.8 1.4.7 2.9 1 4.6 1 2.2 0 3.9-.5 5.1-1.6 1.3-1.1 1.9-2.4 1.9-4.1 0-.9-.1-1.6-.4-2.2s-.6-1.1-1.1-1.6c-.5-.4-1-.8-1.6-1.2s-1.3-.7-1.9-1l-4.3-1.9c-.6-.3-1.3-.6-1.9-1-.7-.4-1.3-.8-1.8-1.4-.6-.6-1-1.2-1.4-2s-.6-1.7-.6-2.7c0-1 .2-2 .6-2.8.4-.8 1-1.6 1.7-2.2.7-.6 1.6-1.1 2.6-1.4 1-.3 2.1-.5 3.3-.5 1.7 0 3.2.3 4.5 1 1.3.7 2.4 1.5 3.3 2.4l-1.1 1.3c-.8-.9-1.8-1.6-2.9-2.1-1.1-.5-2.4-.8-3.8-.8-1.9 0-3.4.5-4.5 1.4s-1.7 2.2-1.7 3.7c0 .8.2 1.5.5 2.1.3.6.7 1.1 1.2 1.5s1 .8 1.6 1.1c.6.3 1.1.6 1.6.8l4.3 1.9c.8.3 1.6.7 2.3 1.2.7.4 1.3.9 1.9 1.5.5.6 1 1.3 1.3 2.1.3.8.5 1.7.5 2.8 0 1.1-.2 2.1-.6 3-.4.9-1 1.7-1.8 2.4s-1.7 1.2-2.8 1.6c-1.1.4-2.3.6-3.7.6-2 0-3.9-.4-5.5-1.2-1.6-.8-2.9-1.8-4.1-3.1l1-1.4zM441.5 145.8h2v28.5h-2v-28.5zM457.8 147.6h-9v-1.7h19.9v1.7h-9v26.8h-2v-26.8zM474.1 145.8h15.4v1.7h-13.4v10.8h11.3v1.7h-11.3v12.5H490v1.7h-15.8v-28.4zm8-2.1h-1.7l3.9-4.6h2.5l-4.7 4.6zM288.5 190.7h2l11.9 20.1 3.2 5.7h.2c-.1-1.4-.1-2.8-.2-4.2-.1-1.4-.1-2.8-.1-4.2v-17.5h1.9v28.5h-2L293.5 199l-3.2-5.7h-.2c.1 1.4.1 2.7.2 4 .1 1.3.1 2.7.1 4V219h-1.9v-28.3zM315.6 190.7h2V208c0 1.9.2 3.5.6 4.7.4 1.3 1 2.3 1.6 3 .7.8 1.5 1.3 2.4 1.6s1.8.5 2.8.5c1 0 2-.2 2.9-.5.9-.3 1.7-.9 2.4-1.6.7-.8 1.3-1.8 1.7-3 .4-1.3.6-2.8.6-4.7v-17.3h1.8v17.6c0 2.2-.3 4.1-.8 5.5s-1.3 2.6-2.1 3.5c-.9.9-1.9 1.5-3 1.9-1.1.4-2.3.5-3.5.5-1.2 0-2.4-.2-3.5-.5s-2.1-1-3-1.9c-.9-.9-1.6-2.1-2.1-3.5-.5-1.5-.8-3.3-.8-5.5v-17.6zM342.7 190.7h2.8l5.9 16.7 2.2 6.3h.2l2.1-6.3 5.9-16.7h2.8v28.5h-1.9v-18.7c0-1.2 0-2.5.1-3.8.1-1.4.1-2.7.2-3.9h-.2l-2.2 6.3-6 17h-1.8l-6.1-17-2.2-6.3h-.2c.1 1.2.1 2.5.2 3.9s.1 2.6.1 3.8v18.7h-1.8v-28.5zM372.9 190.7h15.4v1.7h-13.4v10.8h11.3v1.7h-11.3v12.5h13.9v1.7H373v-28.4zm8-2.2h-1.7l3.9-4.6h2.5l-4.7 4.6zM410.4 219.2l-7.6-13.1h-6v13.1h-2v-28.5h8.1c1.4 0 2.7.1 3.8.4 1.1.3 2.1.7 2.9 1.3.8.6 1.4 1.4 1.9 2.3s.7 2.1.7 3.5c0 2.3-.6 4.1-1.9 5.4-1.3 1.3-3.1 2.1-5.3 2.4l7.8 13.2h-2.4zm-8-14.8c2.5 0 4.4-.5 5.7-1.5 1.3-1 2-2.6 2-4.7s-.7-3.6-2-4.5-3.2-1.3-5.7-1.3h-5.6v12.1h5.6zM418.8 190.7h2v28.5h-2v-28.5zM450.5 225.4c-.4.1-.9.2-1.5.3-.6.1-1.3.2-2 .2-2.4 0-4.3-.6-5.9-1.8-1.6-1.2-2.7-2.7-3.4-4.5-1.5-.1-2.9-.6-4.2-1.4-1.3-.8-2.4-1.8-3.3-3.1-.9-1.3-1.6-2.8-2.2-4.6-.5-1.8-.8-3.7-.8-5.8 0-2.2.3-4.3.9-6.1.6-1.8 1.4-3.3 2.4-4.6 1-1.3 2.2-2.3 3.7-2.9 1.4-.7 3-1 4.7-1 1.7 0 3.3.3 4.7 1 1.4.7 2.6 1.7 3.7 2.9 1 1.3 1.8 2.8 2.4 4.6.6 1.8.9 3.8.9 6.1 0 2.1-.3 4.1-.8 5.8-.5 1.8-1.2 3.3-2.2 4.6-.9 1.3-2 2.3-3.3 3.1-1.3.8-2.7 1.2-4.3 1.4.7 1.4 1.6 2.5 2.8 3.3 1.2.7 2.7 1.1 4.5 1.1.7 0 1.2 0 1.6-.1l1.2-.3.4 1.8zm-21.2-20.6c0 2 .2 3.8.7 5.4.5 1.6 1.1 3 1.9 4.2s1.8 2 3 2.7 2.5 1 3.9 1 2.7-.3 3.9-1 2.2-1.5 3-2.7c.8-1.1 1.5-2.5 1.9-4.2.5-1.6.7-3.4.7-5.4 0-2-.2-3.7-.7-5.3-.5-1.6-1.1-2.9-1.9-4-.8-1.1-1.8-2-3-2.6-1.2-.6-2.5-.9-3.9-.9s-2.7.3-3.9.9c-1.2.6-2.2 1.5-3 2.6s-1.5 2.5-1.9 4c-.5 1.6-.7 3.4-.7 5.3zM456.8 190.7h2V208c0 1.9.2 3.5.6 4.7.4 1.3 1 2.3 1.6 3s1.5 1.3 2.4 1.6 1.8.5 2.8.5c1 0 2-.2 2.9-.5.9-.3 1.7-.9 2.4-1.6.7-.8 1.3-1.8 1.7-3 .4-1.3.6-2.8.6-4.7v-17.3h1.8v17.6c0 2.2-.3 4.1-.8 5.5-.5 1.5-1.3 2.6-2.1 3.5-.9.9-1.9 1.5-3 1.9-1.1.4-2.3.5-3.5.5-1.2 0-2.4-.2-3.5-.5-1.1-.4-2.1-1-3-1.9-.9-.9-1.6-2.1-2.1-3.5s-.8-3.3-.8-5.5v-17.6zM483.9 190.7h15.4v1.7h-13.4v10.8h11.3v1.7h-11.3v12.5h13.9v1.7H484v-28.4z" class="st3"/><path d="m92.2 103.9.7.1H120l.5-.1c1.6 0 2.5 1 2.8 3-.4 1.7-1.4 2.5-3 2.5H94.9V128h16.6l2-.1c1.2 0 2.1.9 2.5 2.8 0 1.2-.7 2.1-2.2 2.8l-2.8-.1H95V153l.1.8c-.4 1.7-1.3 2.6-2.6 2.6h-.3c-1.7-.3-2.6-1.2-2.6-2.6v-47.1c.3-1.7 1.1-2.6 2.6-2.6v-.2zM134.5 104.2h.5c1.7.3 2.5 1.1 2.5 2.2v29.4c0 6.3 1.8 10.5 5.4 12.7 2.3 1.7 4.8 2.6 7.6 2.6 5.4 0 9.4-2.8 12.1-8.3.6-1.7.8-3.5.8-5.4v-30.6c.3-1.7 1.1-2.6 2.5-2.6h.4c1.7.3 2.5 1.1 2.5 2.5v32.1c0 5.5-2.6 10.2-7.9 14.3-3.3 2.2-6.7 3.3-10.1 3.3h-.9c-5.7 0-10.7-2.8-14.9-8.4-1.9-3-2.9-6.7-2.9-11.1v-29.6c.3-2.1 1-3.1 2.4-3.1zM182.5 104.3h.5c1.2 0 2.2.9 3 2.7 1.4 1.5 11.3 14.3 29.9 38.3.2 0 .3.1.3.4l.1.1h.1v-39.1c.3-1.7 1.1-2.5 2.5-2.5h.4c1.4 0 2.2.9 2.5 2.6v46.8c0 1.5-1 2.4-2.9 2.7-1 0-2.6-1.6-4.8-4.8L185.5 115v38.8c0 1.4-.9 2.2-2.6 2.5h-.1c-1.4 0-2.3-.9-2.6-2.7v-46.2c.2-2.1 1-3.1 2.3-3.1z" class="st1"/><path d="M84.1 255.7c-.1-.1-.4-.4-1-.7-.5-.3-1.2-.7-2.1-1.1s-1.7-.7-2.7-1c-1-.3-2-.4-2.9-.4-2.7 0-4 .9-4 2.7 0 .5.1 1 .4 1.4.3.4.7.7 1.3 1 .6.3 1.3.6 2.1.8.9.2 1.8.5 3 .8 1.6.4 3 .9 4.2 1.4 1.3.5 2.3 1.1 3.2 1.9s1.5 1.7 2 2.7.7 2.4.7 3.8c0 1.8-.3 3.4-1 4.6-.7 1.3-1.6 2.3-2.7 3.1-1.1.8-2.4 1.3-3.9 1.7s-3 .5-4.5.5c-1.2 0-2.4-.1-3.7-.3-1.3-.2-2.5-.5-3.7-.8-1.2-.4-2.3-.8-3.5-1.3-1.1-.5-2.1-1.1-3.1-1.7l3.3-6.5c.1.2.5.4 1.2.9.7.4 1.5.9 2.5 1.3s2.1.8 3.3 1.1c1.2.3 2.5.5 3.7.5 2.7 0 4-.8 4-2.4 0-.6-.2-1.1-.6-1.5s-.9-.8-1.6-1.1c-.7-.3-1.5-.6-2.5-.9-1-.3-2-.6-3.1-.9-1.5-.5-2.8-1-3.9-1.5s-2-1.2-2.7-1.9c-.7-.7-1.3-1.5-1.6-2.4-.4-.9-.5-2-.5-3.2 0-1.7.3-3.2 1-4.5.6-1.3 1.5-2.4 2.6-3.3 1.1-.9 2.4-1.6 3.8-2 1.4-.5 3-.7 4.6-.7 1.1 0 2.2.1 3.3.3 1.1.2 2.2.5 3.2.8 1 .3 1.9.7 2.8 1.1s1.7.9 2.4 1.3l-3.3 6.4zM103.7 279.2c-2 0-3.8-.3-5.4-1-1.6-.7-3-1.5-4.1-2.7-1.1-1.1-2-2.4-2.5-3.9-.6-1.5-.9-3-.9-4.6 0-1.7.3-3.4.9-4.9s1.4-2.9 2.5-4.1c1.1-1.2 2.5-2.1 4.1-2.7 1.6-.7 3.4-1 5.5-1 2 0 3.9.3 5.4 1 1.6.7 2.9 1.6 4 2.7s1.9 2.5 2.5 4c.6 1.5.8 3.1.8 4.7v1.3c0 .4-.1.8-.1 1.1H98.5c.1 1.6.7 2.8 1.8 3.7 1.1.8 2.3 1.3 3.6 1.3 1.1 0 2.1-.3 3.1-.8s1.7-1.2 2-2.1l6.2 1.7c-.9 1.9-2.4 3.4-4.4 4.6s-4.3 1.7-7.1 1.7zm5.1-14.8c-.2-1.5-.7-2.7-1.6-3.6-.9-.9-2.1-1.3-3.5-1.3s-2.6.5-3.5 1.4c-.9.9-1.5 2.1-1.6 3.6h10.2zM132.1 278.7v-16.5H129v-5.5h3.1v-2c0-1.5.2-2.9.6-4.1.4-1.2 1-2.3 1.7-3.1.7-.9 1.6-1.5 2.7-2s2.2-.7 3.4-.7c2 0 4 .5 6.3 1.4l-1.3 5.5c-.5-.2-1-.4-1.6-.5-.6-.1-1.2-.2-1.7-.2-1.8 0-2.7 1.1-2.7 3.4v2.2h5.6v5.5h-5.6v16.5h-7.4zM158.4 279.2c-2 0-3.9-.3-5.5-1s-3-1.6-4.1-2.7c-1.1-1.1-1.9-2.5-2.5-4-.6-1.5-.8-3.1-.8-4.7s.3-3.2.8-4.7c.6-1.5 1.4-2.8 2.5-4 1.1-1.1 2.5-2.1 4.1-2.7 1.6-.7 3.4-1 5.5-1 2 0 3.9.3 5.4 1 1.6.7 2.9 1.6 4 2.7s1.9 2.5 2.5 4c.6 1.5.9 3.1.9 4.7s-.3 3.2-.8 4.7c-.6 1.5-1.4 2.8-2.5 4-1.1 1.1-2.5 2.1-4.1 2.7-1.5.7-3.4 1-5.4 1zm-5.4-12.5c0 1.9.5 3.4 1.5 4.6 1 1.1 2.3 1.7 3.8 1.7.8 0 1.5-.2 2.1-.5.6-.3 1.2-.7 1.7-1.3.5-.5.8-1.2 1.1-2 .3-.8.4-1.6.4-2.5 0-1.9-.5-3.4-1.5-4.6-1-1.1-2.3-1.7-3.8-1.7-.8 0-1.5.2-2.1.5-.7.3-1.2.7-1.7 1.3s-.8 1.2-1.1 2c-.2.8-.4 1.6-.4 2.5zM190.1 261c-1.8 0-3.4.3-4.8.9-1.4.5-2.5 1.4-3.1 2.5v14.4h-7.3v-24h6.7v4.9c.8-1.6 1.9-2.9 3.2-3.8 1.3-.9 2.7-1.4 4.1-1.4h1.2v6.5zM231.2 278.7h-7.3v-13.5c0-1.6-.3-2.7-.9-3.5-.6-.7-1.3-1.1-2.2-1.1-.5 0-1 .1-1.5.3s-1 .5-1.4.9c-.4.4-.8.8-1.2 1.4-.4.5-.6 1.1-.8 1.7v13.8h-7.3v-13.5c0-1.6-.3-2.7-.9-3.5-.6-.7-1.3-1.1-2.2-1.1-1 0-1.9.4-2.9 1.2s-1.6 1.8-2 3.1v13.8h-7.3v-24h6.6v4c.9-1.5 2.1-2.6 3.6-3.3 1.5-.8 3.3-1.1 5.3-1.1 1 0 1.9.1 2.6.4.7.2 1.4.6 1.9 1s1 .9 1.3 1.5c.3.6.6 1.2.7 1.8.9-1.5 2.1-2.6 3.6-3.5 1.5-.8 3.2-1.2 5.1-1.2 1.5 0 2.8.3 3.7.8.9.6 1.7 1.3 2.2 2.2.5.9.9 1.9 1 3 .2 1.1.3 2.1.3 3.1v15.3zM247.5 279.2c-2 0-3.8-.3-5.4-1-1.6-.7-3-1.5-4.1-2.7-1.1-1.1-2-2.4-2.5-3.9-.6-1.5-.9-3-.9-4.6 0-1.7.3-3.4.9-4.9s1.4-2.9 2.5-4.1c1.1-1.2 2.5-2.1 4.1-2.7 1.6-.7 3.4-1 5.5-1 2 0 3.9.3 5.4 1 1.6.7 2.9 1.6 4 2.7s1.9 2.5 2.5 4c.6 1.5.8 3.1.8 4.7v1.3c0 .4-.1.8-.1 1.1h-17.8c.1 1.6.7 2.8 1.8 3.7 1.1.8 2.3 1.3 3.6 1.3 1.1 0 2.1-.3 3.1-.8s1.7-1.2 2-2.1l6.2 1.7c-.9 1.9-2.4 3.4-4.4 4.6s-4.4 1.7-7.2 1.7zm5.1-14.8c-.2-1.5-.7-2.7-1.6-3.6-.9-.9-2.1-1.3-3.5-1.3s-2.6.5-3.5 1.4c-.9.9-1.5 2.1-1.6 3.6h10.2zM278.9 261c-1.8 0-3.4.3-4.8.9-1.4.5-2.5 1.4-3.1 2.5v14.4h-7.3v-24h6.7v4.9c.8-1.6 1.9-2.9 3.2-3.8 1.3-.9 2.7-1.4 4.1-1.4h1.2v6.5zM303.1 279.2c-2 0-3.8-.3-5.4-1-1.6-.7-3-1.5-4.1-2.7-1.1-1.1-2-2.4-2.5-3.9-.6-1.5-.9-3-.9-4.6 0-1.7.3-3.4.9-4.9s1.4-2.9 2.5-4.1c1.1-1.2 2.5-2.1 4.1-2.7 1.6-.7 3.4-1 5.5-1 2 0 3.9.3 5.4 1 1.6.7 2.9 1.6 4 2.7s1.9 2.5 2.5 4c.6 1.5.8 3.1.8 4.7v1.3c0 .4-.1.8-.1 1.1H298c.1 1.6.7 2.8 1.8 3.7 1.1.8 2.3 1.3 3.6 1.3 1.1 0 2.1-.3 3.1-.8s1.7-1.2 2-2.1l6.2 1.7c-.9 1.9-2.4 3.4-4.4 4.6s-4.5 1.7-7.2 1.7zm5.1-14.8c-.2-1.5-.7-2.7-1.6-3.6-.9-.9-2.1-1.3-3.5-1.3s-2.6.5-3.5 1.4c-.9.9-1.5 2.1-1.6 3.6h10.2zM342.4 278.7h-7.3v-13.5c0-1.6-.3-2.7-.9-3.5-.6-.7-1.4-1.1-2.4-1.1-.5 0-1 .1-1.6.3-.5.2-1 .5-1.5.9s-.9.8-1.3 1.4c-.4.5-.7 1.1-.9 1.7v13.8h-7.3v-24h6.6v4c.9-1.4 2.1-2.5 3.8-3.3s3.5-1.2 5.6-1.2c1.6 0 2.8.3 3.8.8.9.6 1.7 1.3 2.2 2.2.5.9.9 1.9 1 3 .2 1.1.3 2.1.3 3.1v15.4zM357.8 245.3h7.3v24.9c0 1.8.8 2.7 2.3 2.7.4 0 .8-.1 1.2-.2.4-.1.8-.3 1.2-.5l1 5.5c-.9.4-2 .8-3.2 1-1.2.2-2.3.4-3.3.4-2.1 0-3.7-.5-4.9-1.6-1.1-1.1-1.7-2.7-1.7-4.8v-27.4zM373.3 251.9v-6.6h7.3v6.6h-7.3zm0 26.8v-24h7.3v24h-7.3zM400.1 279.2c-1.8 0-3.4-.4-4.8-1.2s-2.5-1.9-3.3-3.3v4h-6.4v-33.4h7.3v13.3c.8-1.4 1.9-2.5 3.2-3.2s2.9-1.2 4.7-1.2c1.5 0 2.9.3 4.2 1 1.3.7 2.4 1.6 3.3 2.7.9 1.1 1.6 2.5 2.2 4 .5 1.5.8 3.2.8 4.9s-.3 3.4-.8 4.9c-.6 1.5-1.4 2.8-2.4 3.9s-2.2 2-3.6 2.6c-1.4.7-2.8 1-4.4 1zM398 273c.9 0 1.6-.2 2.3-.5.7-.3 1.3-.8 1.8-1.3s.9-1.2 1.2-1.9c.3-.7.4-1.6.4-2.5 0-.9-.1-1.7-.4-2.5-.3-.8-.6-1.5-1.1-2-.5-.6-1-1-1.7-1.4-.7-.3-1.4-.5-2.2-.5-1.2 0-2.2.4-3.2 1.2-1 .8-1.7 1.8-2.2 3v5c.5 1 1.2 1.9 2.1 2.5 1 .6 2 .9 3 .9zM426.4 279.2c-2 0-3.8-.3-5.4-1-1.6-.7-3-1.5-4.1-2.7-1.1-1.1-2-2.4-2.5-3.9-.6-1.5-.9-3-.9-4.6 0-1.7.3-3.4.9-4.9s1.4-2.9 2.5-4.1c1.1-1.2 2.5-2.1 4.1-2.7 1.6-.7 3.4-1 5.5-1 2 0 3.9.3 5.4 1 1.6.7 2.9 1.6 4 2.7s1.9 2.5 2.5 4c.6 1.5.8 3.1.8 4.7v1.3c0 .4-.1.8-.1 1.1h-17.8c.1 1.6.7 2.8 1.8 3.7 1.1.8 2.3 1.3 3.6 1.3 1.1 0 2.1-.3 3.1-.8s1.7-1.2 2-2.1l6.2 1.7c-.9 1.9-2.4 3.4-4.4 4.6s-4.4 1.7-7.2 1.7zm5.1-14.8c-.2-1.5-.7-2.7-1.6-3.6-.9-.9-2.1-1.3-3.5-1.3s-2.6.5-3.5 1.4c-.9.9-1.5 2.1-1.6 3.6h10.2zM457.9 261c-1.8 0-3.4.3-4.8.9-1.4.5-2.5 1.4-3.1 2.5v14.4h-7.3v-24h6.7v4.9c.8-1.6 1.9-2.9 3.2-3.8 1.3-.9 2.7-1.4 4.1-1.4h1.2v6.5zM476.5 277.4c-1 .4-2.2.8-3.5 1.2-1.3.4-2.6.5-3.9.5-.9 0-1.8-.1-2.6-.3-.8-.2-1.5-.6-2.1-1.1-.6-.5-1.1-1.2-1.4-2-.4-.8-.5-1.8-.5-3v-12.5h-3.1v-5.5h3.1V247h7.3v7.6h4.9v5.5h-4.9v10c0 .8.2 1.4.6 1.7.4.4.9.5 1.5.5.5 0 1.1-.1 1.7-.3.6-.2 1.1-.4 1.5-.6l1.4 6zM490.2 279.2c-2 0-3.8-.3-5.4-1-1.6-.7-3-1.5-4.1-2.7-1.1-1.1-2-2.4-2.5-3.9-.6-1.5-.9-3-.9-4.6 0-1.7.3-3.4.9-4.9s1.4-2.9 2.5-4.1c1.1-1.2 2.5-2.1 4.1-2.7 1.6-.7 3.4-1 5.5-1 2 0 3.9.3 5.4 1 1.6.7 2.9 1.6 4 2.7s1.9 2.5 2.5 4c.6 1.5.8 3.1.8 4.7v1.3c0 .4-.1.8-.1 1.1h-17.8c.1 1.6.7 2.8 1.8 3.7 1.1.8 2.3 1.3 3.6 1.3 1.1 0 2.1-.3 3.1-.8s1.7-1.2 2-2.1l6.2 1.7c-.9 1.9-2.4 3.4-4.4 4.6s-4.4 1.7-7.2 1.7zm5.1-14.8c-.2-1.5-.7-2.7-1.6-3.6-.9-.9-2.1-1.3-3.5-1.3s-2.6.5-3.5 1.4c-.9.9-1.5 2.1-1.6 3.6h10.2zm-3-11.9-4.7-1.3 2.4-6h6.6l-4.3 7.3z" class="st0"/></svg>